<mxfile host="Electron" modified="2024-09-02T19:24:40.534Z" agent="Mozilla/5.0 (X11; Linux x86_64) AppleWebKit/537.36 (KHTML, like Gecko) draw.io/24.6.4 Chrome/124.0.6367.207 Electron/30.0.6 Safari/537.36" etag="7SC5XDyrwWwWWoDlBgjB" version="24.6.4" type="device">
  <diagram id="C5RBs43oDa-KdzZeNtuy" name="Page-1">
    <mxGraphModel dx="1390" dy="791" grid="1" gridSize="10" guides="1" tooltips="1" connect="1" arrows="1" fold="1" page="1" pageScale="1" pageWidth="827" pageHeight="1169" math="0" shadow="0">
      <root>
        <mxCell id="WIyWlLk6GJQsqaUBKTNV-0" />
        <mxCell id="WIyWlLk6GJQsqaUBKTNV-1" parent="WIyWlLk6GJQsqaUBKTNV-0" />
        <mxCell id="xWcLNQ5YNkxrJ8t6xSiV-4" style="edgeStyle=orthogonalEdgeStyle;rounded=0;orthogonalLoop=1;jettySize=auto;html=1;exitX=0.5;exitY=1;exitDx=0;exitDy=0;entryX=0.5;entryY=0;entryDx=0;entryDy=0;fontColor=#025d8c;fontStyle=1;strokeColor=#025d8c;strokeWidth=2;" parent="WIyWlLk6GJQsqaUBKTNV-1" source="xWcLNQ5YNkxrJ8t6xSiV-0" target="xWcLNQ5YNkxrJ8t6xSiV-1" edge="1">
          <mxGeometry relative="1" as="geometry" />
        </mxCell>
        <mxCell id="xWcLNQ5YNkxrJ8t6xSiV-5" style="edgeStyle=orthogonalEdgeStyle;rounded=0;orthogonalLoop=1;jettySize=auto;html=1;exitX=0.5;exitY=1;exitDx=0;exitDy=0;entryX=0.5;entryY=0;entryDx=0;entryDy=0;fontColor=#025d8c;fontStyle=1;strokeColor=#025d8c;strokeWidth=2;" parent="WIyWlLk6GJQsqaUBKTNV-1" source="xWcLNQ5YNkxrJ8t6xSiV-0" target="xWcLNQ5YNkxrJ8t6xSiV-2" edge="1">
          <mxGeometry relative="1" as="geometry" />
        </mxCell>
        <mxCell id="xWcLNQ5YNkxrJ8t6xSiV-6" style="edgeStyle=orthogonalEdgeStyle;rounded=0;orthogonalLoop=1;jettySize=auto;html=1;exitX=0.5;exitY=1;exitDx=0;exitDy=0;entryX=0.5;entryY=0;entryDx=0;entryDy=0;fontColor=#025d8c;fontStyle=1;strokeColor=#025d8c;strokeWidth=2;" parent="WIyWlLk6GJQsqaUBKTNV-1" source="xWcLNQ5YNkxrJ8t6xSiV-0" target="xWcLNQ5YNkxrJ8t6xSiV-3" edge="1">
          <mxGeometry relative="1" as="geometry" />
        </mxCell>
        <mxCell id="xWcLNQ5YNkxrJ8t6xSiV-0" value="Type of host" style="rhombus;whiteSpace=wrap;html=1;strokeColor=#025d8c;strokeWidth=2;fontColor=#ffffff;fontStyle=1;fillColor=#025d8c;" parent="WIyWlLk6GJQsqaUBKTNV-1" vertex="1">
          <mxGeometry x="200" y="90" width="120" height="60" as="geometry" />
        </mxCell>
        <mxCell id="xWcLNQ5YNkxrJ8t6xSiV-8" style="edgeStyle=orthogonalEdgeStyle;rounded=0;orthogonalLoop=1;jettySize=auto;html=1;exitX=0.5;exitY=1;exitDx=0;exitDy=0;entryX=0.5;entryY=0;entryDx=0;entryDy=0;fontColor=#025d8c;fontStyle=1;strokeColor=#025d8c;strokeWidth=2;" parent="WIyWlLk6GJQsqaUBKTNV-1" source="xWcLNQ5YNkxrJ8t6xSiV-1" target="xWcLNQ5YNkxrJ8t6xSiV-7" edge="1">
          <mxGeometry relative="1" as="geometry" />
        </mxCell>
        <mxCell id="0Na-MwaQ5eHF5oUU5LyZ-0" style="edgeStyle=orthogonalEdgeStyle;rounded=0;orthogonalLoop=1;jettySize=auto;html=1;exitX=0.75;exitY=1;exitDx=0;exitDy=0;entryX=0.5;entryY=0;entryDx=0;entryDy=0;strokeWidth=2;strokeColor=#025D8C;" edge="1" parent="WIyWlLk6GJQsqaUBKTNV-1" source="xWcLNQ5YNkxrJ8t6xSiV-1" target="xWcLNQ5YNkxrJ8t6xSiV-10">
          <mxGeometry relative="1" as="geometry">
            <Array as="points">
              <mxPoint x="110" y="250" />
              <mxPoint x="440" y="250" />
            </Array>
          </mxGeometry>
        </mxCell>
        <mxCell id="xWcLNQ5YNkxrJ8t6xSiV-1" value="Cloud instance" style="rounded=0;whiteSpace=wrap;html=1;fontColor=#025d8c;fontStyle=1;strokeColor=#025d8c;strokeWidth=2;fillColor=#C9EFFF;" parent="WIyWlLk6GJQsqaUBKTNV-1" vertex="1">
          <mxGeometry x="20" y="200" width="120" height="30" as="geometry" />
        </mxCell>
        <mxCell id="xWcLNQ5YNkxrJ8t6xSiV-9" style="edgeStyle=orthogonalEdgeStyle;rounded=0;orthogonalLoop=1;jettySize=auto;html=1;exitX=0.5;exitY=1;exitDx=0;exitDy=0;fontColor=#025d8c;fontStyle=1;strokeColor=#025d8c;strokeWidth=2;entryX=0.5;entryY=0;entryDx=0;entryDy=0;" parent="WIyWlLk6GJQsqaUBKTNV-1" source="xWcLNQ5YNkxrJ8t6xSiV-2" target="xWcLNQ5YNkxrJ8t6xSiV-7" edge="1">
          <mxGeometry relative="1" as="geometry">
            <mxPoint x="170" y="280" as="targetPoint" />
          </mxGeometry>
        </mxCell>
        <mxCell id="0Na-MwaQ5eHF5oUU5LyZ-1" style="edgeStyle=orthogonalEdgeStyle;rounded=0;orthogonalLoop=1;jettySize=auto;html=1;exitX=0.75;exitY=1;exitDx=0;exitDy=0;strokeColor=#025D8C;strokeWidth=2;" edge="1" parent="WIyWlLk6GJQsqaUBKTNV-1" source="xWcLNQ5YNkxrJ8t6xSiV-2">
          <mxGeometry relative="1" as="geometry">
            <mxPoint x="440" y="300" as="targetPoint" />
            <Array as="points">
              <mxPoint x="290" y="250" />
              <mxPoint x="441" y="250" />
            </Array>
          </mxGeometry>
        </mxCell>
        <mxCell id="xWcLNQ5YNkxrJ8t6xSiV-2" value="Virtual machine" style="rounded=0;whiteSpace=wrap;html=1;fontColor=#025d8c;fontStyle=1;strokeColor=#025d8c;strokeWidth=2;fillColor=#C9EFFF;" parent="WIyWlLk6GJQsqaUBKTNV-1" vertex="1">
          <mxGeometry x="200" y="200" width="120" height="30" as="geometry" />
        </mxCell>
        <mxCell id="xWcLNQ5YNkxrJ8t6xSiV-34" value="" style="edgeStyle=orthogonalEdgeStyle;rounded=0;orthogonalLoop=1;jettySize=auto;html=1;fontColor=#025d8c;fontStyle=1;strokeColor=#025d8c;strokeWidth=2;" parent="WIyWlLk6GJQsqaUBKTNV-1" source="xWcLNQ5YNkxrJ8t6xSiV-3" target="xWcLNQ5YNkxrJ8t6xSiV-10" edge="1">
          <mxGeometry relative="1" as="geometry" />
        </mxCell>
        <mxCell id="xWcLNQ5YNkxrJ8t6xSiV-3" value="Bare metal" style="rounded=0;whiteSpace=wrap;html=1;fontColor=#025d8c;fontStyle=1;strokeColor=#025d8c;strokeWidth=2;fillColor=#C9EFFF;" parent="WIyWlLk6GJQsqaUBKTNV-1" vertex="1">
          <mxGeometry x="380" y="200" width="120" height="30" as="geometry" />
        </mxCell>
        <mxCell id="xWcLNQ5YNkxrJ8t6xSiV-7" value="Image-based&lt;div&gt;provisioning&lt;/div&gt;" style="rounded=1;whiteSpace=wrap;html=1;fontColor=#025d8c;fontStyle=1;strokeColor=#025d8c;strokeWidth=2;fillColor=#ffffff;" parent="WIyWlLk6GJQsqaUBKTNV-1" vertex="1">
          <mxGeometry x="110" y="300" width="120" height="60" as="geometry" />
        </mxCell>
        <mxCell id="xWcLNQ5YNkxrJ8t6xSiV-23" style="edgeStyle=orthogonalEdgeStyle;rounded=0;orthogonalLoop=1;jettySize=auto;html=1;exitX=0.5;exitY=1;exitDx=0;exitDy=0;entryX=0.5;entryY=0;entryDx=0;entryDy=0;fontColor=#025d8c;fontStyle=1;strokeColor=#025d8c;strokeWidth=2;" parent="WIyWlLk6GJQsqaUBKTNV-1" source="xWcLNQ5YNkxrJ8t6xSiV-10" target="xWcLNQ5YNkxrJ8t6xSiV-12" edge="1">
          <mxGeometry relative="1" as="geometry" />
        </mxCell>
        <mxCell id="xWcLNQ5YNkxrJ8t6xSiV-24" style="edgeStyle=orthogonalEdgeStyle;rounded=0;orthogonalLoop=1;jettySize=auto;html=1;exitX=0.5;exitY=1;exitDx=0;exitDy=0;entryX=0.5;entryY=0;entryDx=0;entryDy=0;fontColor=#025d8c;fontStyle=1;strokeColor=#025d8c;strokeWidth=2;" parent="WIyWlLk6GJQsqaUBKTNV-1" source="xWcLNQ5YNkxrJ8t6xSiV-10" target="xWcLNQ5YNkxrJ8t6xSiV-13" edge="1">
          <mxGeometry relative="1" as="geometry" />
        </mxCell>
        <mxCell id="xWcLNQ5YNkxrJ8t6xSiV-10" value="Network&lt;div&gt;configuration&lt;/div&gt;" style="rhombus;whiteSpace=wrap;html=1;fontColor=#ffffff;fontStyle=1;strokeColor=#025d8c;strokeWidth=2;fillColor=#025d8c;spacingTop=-4;" parent="WIyWlLk6GJQsqaUBKTNV-1" vertex="1">
          <mxGeometry x="375" y="300" width="130" height="80" as="geometry" />
        </mxCell>
        <mxCell id="xWcLNQ5YNkxrJ8t6xSiV-25" style="edgeStyle=orthogonalEdgeStyle;rounded=0;orthogonalLoop=1;jettySize=auto;html=1;exitX=0.5;exitY=1;exitDx=0;exitDy=0;entryX=0.5;entryY=0;entryDx=0;entryDy=0;fontColor=#025d8c;fontStyle=1;strokeColor=#025d8c;strokeWidth=2;" parent="WIyWlLk6GJQsqaUBKTNV-1" source="xWcLNQ5YNkxrJ8t6xSiV-12" edge="1">
          <mxGeometry relative="1" as="geometry">
            <mxPoint x="311" y="670" as="targetPoint" />
          </mxGeometry>
        </mxCell>
        <mxCell id="xWcLNQ5YNkxrJ8t6xSiV-12" value="Static IP address" style="rounded=0;whiteSpace=wrap;html=1;fontColor=#025d8c;fontStyle=1;strokeColor=#025d8c;strokeWidth=2;fillColor=#C9EFFF;" parent="WIyWlLk6GJQsqaUBKTNV-1" vertex="1">
          <mxGeometry x="251" y="420" width="120" height="30" as="geometry" />
        </mxCell>
        <mxCell id="xWcLNQ5YNkxrJ8t6xSiV-26" style="edgeStyle=orthogonalEdgeStyle;rounded=0;orthogonalLoop=1;jettySize=auto;html=1;exitX=0.5;exitY=1;exitDx=0;exitDy=0;entryX=0.5;entryY=0;entryDx=0;entryDy=0;fontColor=#025d8c;fontStyle=1;strokeColor=#025d8c;strokeWidth=2;" parent="WIyWlLk6GJQsqaUBKTNV-1" source="xWcLNQ5YNkxrJ8t6xSiV-13" target="xWcLNQ5YNkxrJ8t6xSiV-14" edge="1">
          <mxGeometry relative="1" as="geometry" />
        </mxCell>
        <mxCell id="xWcLNQ5YNkxrJ8t6xSiV-13" value="DHCP" style="rounded=0;whiteSpace=wrap;html=1;fontColor=#025d8c;fontStyle=1;strokeColor=#025d8c;strokeWidth=2;fillColor=#C9EFFF;" parent="WIyWlLk6GJQsqaUBKTNV-1" vertex="1">
          <mxGeometry x="520" y="420" width="120" height="30" as="geometry" />
        </mxCell>
        <mxCell id="xWcLNQ5YNkxrJ8t6xSiV-27" style="edgeStyle=orthogonalEdgeStyle;rounded=0;orthogonalLoop=1;jettySize=auto;html=1;exitX=0.5;exitY=1;exitDx=0;exitDy=0;entryX=0.5;entryY=0;entryDx=0;entryDy=0;fontColor=#025d8c;fontStyle=1;strokeColor=#025d8c;strokeWidth=2;" parent="WIyWlLk6GJQsqaUBKTNV-1" source="xWcLNQ5YNkxrJ8t6xSiV-14" target="xWcLNQ5YNkxrJ8t6xSiV-16" edge="1">
          <mxGeometry relative="1" as="geometry" />
        </mxCell>
        <mxCell id="xWcLNQ5YNkxrJ8t6xSiV-28" style="edgeStyle=orthogonalEdgeStyle;rounded=0;orthogonalLoop=1;jettySize=auto;html=1;exitX=0.5;exitY=1;exitDx=0;exitDy=0;fontColor=#025d8c;fontStyle=1;strokeColor=#025d8c;strokeWidth=2;" parent="WIyWlLk6GJQsqaUBKTNV-1" source="xWcLNQ5YNkxrJ8t6xSiV-14" target="xWcLNQ5YNkxrJ8t6xSiV-17" edge="1">
          <mxGeometry relative="1" as="geometry">
            <mxPoint x="461" y="600" as="targetPoint" />
          </mxGeometry>
        </mxCell>
        <mxCell id="xWcLNQ5YNkxrJ8t6xSiV-29" style="edgeStyle=orthogonalEdgeStyle;rounded=0;orthogonalLoop=1;jettySize=auto;html=1;exitX=0.5;exitY=1;exitDx=0;exitDy=0;entryX=0.5;entryY=0;entryDx=0;entryDy=0;fontColor=#025d8c;fontStyle=1;strokeColor=#025d8c;strokeWidth=2;" parent="WIyWlLk6GJQsqaUBKTNV-1" source="xWcLNQ5YNkxrJ8t6xSiV-14" target="xWcLNQ5YNkxrJ8t6xSiV-15" edge="1">
          <mxGeometry relative="1" as="geometry" />
        </mxCell>
        <mxCell id="xWcLNQ5YNkxrJ8t6xSiV-14" value="Firmware&lt;div&gt;of host&lt;/div&gt;" style="rhombus;whiteSpace=wrap;html=1;fontColor=#ffffff;fontStyle=1;strokeColor=#025d8c;strokeWidth=2;fillColor=#025d8c;" parent="WIyWlLk6GJQsqaUBKTNV-1" vertex="1">
          <mxGeometry x="525" y="480" width="110" height="80" as="geometry" />
        </mxCell>
        <mxCell id="xWcLNQ5YNkxrJ8t6xSiV-30" style="edgeStyle=orthogonalEdgeStyle;rounded=0;orthogonalLoop=1;jettySize=auto;html=1;exitX=0.5;exitY=1;exitDx=0;exitDy=0;entryX=0.5;entryY=0;entryDx=0;entryDy=0;fontColor=#025d8c;fontStyle=1;strokeColor=#025d8c;strokeWidth=2;" parent="WIyWlLk6GJQsqaUBKTNV-1" source="xWcLNQ5YNkxrJ8t6xSiV-15" edge="1">
          <mxGeometry relative="1" as="geometry">
            <mxPoint x="710" y="670" as="targetPoint" />
          </mxGeometry>
        </mxCell>
        <mxCell id="xWcLNQ5YNkxrJ8t6xSiV-15" value="UEFI HTTP" style="rounded=0;whiteSpace=wrap;html=1;fontColor=#025d8c;fontStyle=1;strokeColor=#025d8c;strokeWidth=2;fillColor=#C9EFFF;" parent="WIyWlLk6GJQsqaUBKTNV-1" vertex="1">
          <mxGeometry x="670" y="600" width="80" height="30" as="geometry" />
        </mxCell>
        <mxCell id="xWcLNQ5YNkxrJ8t6xSiV-31" style="edgeStyle=orthogonalEdgeStyle;rounded=0;orthogonalLoop=1;jettySize=auto;html=1;exitX=0.5;exitY=1;exitDx=0;exitDy=0;entryX=0.5;entryY=0;entryDx=0;entryDy=0;fontColor=#025d8c;fontStyle=1;strokeColor=#025d8c;strokeWidth=2;" parent="WIyWlLk6GJQsqaUBKTNV-1" source="xWcLNQ5YNkxrJ8t6xSiV-16" edge="1">
          <mxGeometry relative="1" as="geometry">
            <mxPoint x="580" y="670" as="targetPoint" />
          </mxGeometry>
        </mxCell>
        <mxCell id="xWcLNQ5YNkxrJ8t6xSiV-16" value="PXE" style="rounded=0;whiteSpace=wrap;html=1;fontColor=#025d8c;fontStyle=1;strokeColor=#025d8c;strokeWidth=2;fillColor=#C9EFFF;" parent="WIyWlLk6GJQsqaUBKTNV-1" vertex="1">
          <mxGeometry x="540" y="600" width="80" height="30" as="geometry" />
        </mxCell>
        <mxCell id="xWcLNQ5YNkxrJ8t6xSiV-33" style="edgeStyle=orthogonalEdgeStyle;rounded=0;orthogonalLoop=1;jettySize=auto;html=1;exitX=0.5;exitY=1;exitDx=0;exitDy=0;entryX=0.5;entryY=0;entryDx=0;entryDy=0;fontColor=#025d8c;fontStyle=1;strokeColor=#025d8c;strokeWidth=2;" parent="WIyWlLk6GJQsqaUBKTNV-1" source="xWcLNQ5YNkxrJ8t6xSiV-17" edge="1">
          <mxGeometry relative="1" as="geometry">
            <mxPoint x="451" y="670" as="targetPoint" />
          </mxGeometry>
        </mxCell>
        <mxCell id="xWcLNQ5YNkxrJ8t6xSiV-17" value="No PXE" style="rounded=0;whiteSpace=wrap;html=1;fontColor=#025d8c;fontStyle=1;strokeColor=#025d8c;strokeWidth=2;fillColor=#C9EFFF;" parent="WIyWlLk6GJQsqaUBKTNV-1" vertex="1">
          <mxGeometry x="411" y="600" width="80" height="30" as="geometry" />
        </mxCell>
        <mxCell id="xWcLNQ5YNkxrJ8t6xSiV-18" value="Installer-based&amp;nbsp;&lt;div&gt;provisioning&lt;/div&gt;&lt;div&gt;with full-host&lt;/div&gt;&lt;div&gt;boot disk&lt;/div&gt;" style="rounded=1;whiteSpace=wrap;html=1;fontColor=#025d8c;fontStyle=1;strokeColor=#025d8c;strokeWidth=2;fillColor=#ffffff;" parent="WIyWlLk6GJQsqaUBKTNV-1" vertex="1">
          <mxGeometry x="251" y="670" width="120" height="80" as="geometry" />
        </mxCell>
        <mxCell id="xWcLNQ5YNkxrJ8t6xSiV-19" value="Installer-based&amp;nbsp;&lt;div&gt;provisioning&lt;/div&gt;&lt;div&gt;with PXE boot&lt;/div&gt;" style="rounded=1;whiteSpace=wrap;html=1;fontColor=#025d8c;fontStyle=1;strokeColor=#025d8c;strokeWidth=2;fillColor=#ffffff;" parent="WIyWlLk6GJQsqaUBKTNV-1" vertex="1">
          <mxGeometry x="530" y="670" width="100" height="80" as="geometry" />
        </mxCell>
        <mxCell id="xWcLNQ5YNkxrJ8t6xSiV-20" value="Installer-based&amp;nbsp;&lt;div&gt;provisioning&lt;/div&gt;&lt;div&gt;with HTTP boot&lt;/div&gt;" style="rounded=1;whiteSpace=wrap;html=1;fontColor=#025d8c;fontStyle=1;strokeColor=#025d8c;strokeWidth=2;fillColor=#ffffff;" parent="WIyWlLk6GJQsqaUBKTNV-1" vertex="1">
          <mxGeometry x="658.75" y="670" width="102.5" height="80" as="geometry" />
        </mxCell>
        <mxCell id="Y5WXKg2Rp6gv7IF2gnYe-0" value="Installer-based&amp;nbsp;&lt;div&gt;provisioning&lt;/div&gt;&lt;div&gt;with subnet&lt;/div&gt;&lt;div&gt;boot disk&lt;/div&gt;" style="rounded=1;whiteSpace=wrap;html=1;fontColor=#025d8c;fontStyle=1;strokeColor=#025d8c;strokeWidth=2;fillColor=#ffffff;" parent="WIyWlLk6GJQsqaUBKTNV-1" vertex="1">
          <mxGeometry x="391" y="670" width="120" height="80" as="geometry" />
        </mxCell>
      </root>
    </mxGraphModel>
  </diagram>
</mxfile>
